<svg version="1.1" id="Layer_1" xmlns="http://www.w3.org/2000/svg" xmlns:xlink="http://www.w3.org/1999/xlink" x="0px" y="0px"
	 width="100%" viewBox="0 0 333 276" enable-background="new 0 0 333 276" xml:space="preserve">
<path fill="#FEFEFE" opacity="1.000000" stroke="none" 
	d="
M203.000000,277.000000 
	C135.333359,277.000000 68.166733,277.000000 1.000072,277.000000 
	C1.000048,185.000076 1.000048,93.000153 1.000024,1.000171 
	C111.999870,1.000114 222.999741,1.000114 333.999695,1.000057 
	C333.999817,92.999825 333.999817,184.999649 333.999908,276.999756 
	C290.500000,277.000000 247.000000,277.000000 203.000000,277.000000 
M82.115303,112.540802 
	C82.115303,112.540802 81.831993,112.942413 81.249519,113.164253 
	C80.203461,114.425110 79.157402,115.685959 77.620453,117.406387 
	C76.007278,119.238472 74.394104,121.070557 72.218292,123.157883 
	C71.123177,124.580154 70.028061,126.002426 68.231918,127.643440 
	C66.489723,130.142090 63.598175,132.493896 63.256062,135.171448 
	C62.635487,140.028366 63.773472,145.081711 63.722343,150.048401 
	C63.679619,154.199036 65.570168,155.398193 69.387573,155.527252 
	C97.481491,156.477036 125.563728,157.988602 153.664200,158.465851 
	C180.456436,158.920868 207.266754,158.399857 234.068146,158.186844 
	C246.841064,158.085327 259.611755,157.702835 272.366882,157.447952 
	C274.537537,144.078552 273.717773,131.858261 268.630493,120.080849 
	C267.155548,116.666275 265.615967,113.279648 263.836700,109.227043 
	C263.190826,107.477654 262.544952,105.728264 262.054565,103.164085 
	C260.248413,97.149910 258.492920,91.119431 256.569855,85.142868 
	C256.337982,84.422264 255.114075,83.424507 254.494354,83.517487 
	C248.423431,84.428421 247.822525,79.348709 245.085571,75.136009 
	C257.960938,69.941414 256.610504,59.885525 253.971405,49.435974 
	C253.893509,49.127602 253.711624,48.845490 253.452820,48.274357 
	C243.476028,47.811535 233.363297,47.354004 223.251785,46.871132 
	C194.502548,45.498222 165.753265,44.126148 137.005585,42.721500 
	C133.449036,42.547729 130.091751,42.679253 127.501305,46.577045 
	C125.992561,47.658714 124.483826,48.740383 122.219612,49.811413 
	C112.224930,56.323303 102.230240,62.835194 91.652435,69.687469 
	C85.583275,72.768143 86.479836,78.276802 86.997871,83.509880 
	C87.987976,93.511734 97.112442,87.478638 101.641525,90.819489 
	C98.368027,94.532883 95.098053,98.242279 91.244957,102.174530 
	C90.204811,103.434265 89.164665,104.693993 87.656624,106.453186 
	C85.988144,108.480415 84.319664,110.507645 82.689575,112.614716 
	C82.689575,112.614716 82.600990,112.616074 82.115303,112.540802 
M136.388931,183.984116 
	C135.551117,184.086334 134.713287,184.188568 133.875473,184.290802 
	C133.880051,184.512787 133.884644,184.734772 133.889221,184.956757 
	C134.961288,184.956757 136.033340,184.956757 137.863617,184.927719 
	C142.902740,187.567184 143.562454,191.652084 139.399002,198.195908 
	C138.316666,198.552338 137.234314,198.908783 136.151978,199.265213 
	C136.761215,199.845871 137.370453,200.426529 138.693527,201.256393 
	C139.768356,204.697525 140.803299,208.151733 141.927765,211.576569 
	C143.452271,216.219894 146.253189,216.859787 149.380066,214.304764 
	C148.227829,212.985413 146.856369,211.859756 146.062408,210.416397 
	C144.221619,207.070038 142.659958,203.570129 141.001816,199.491287 
	C141.005707,199.063751 141.009598,198.636200 141.742767,198.074890 
	C146.084732,196.721130 147.179428,193.292603 146.346649,189.488220 
	C145.305710,184.732941 141.561859,183.538437 136.388931,183.984116 
M230.229813,213.223358 
	C231.434998,213.559937 232.640182,213.896500 233.598587,214.164139 
	C233.945374,209.901947 234.294449,205.611420 234.638397,201.384125 
	C232.140472,201.384125 228.912064,201.384125 224.481049,201.384125 
	C231.554306,203.976608 229.034821,208.793625 228.511749,212.970963 
	C228.351151,213.303787 228.190552,213.636597 228.029953,213.969421 
	C228.548737,213.829788 229.067535,213.690170 230.229813,213.223358 
M292.295593,183.109207 
	C288.910645,183.109207 285.525726,183.109207 281.300537,183.109207 
	C282.586212,184.827393 283.349579,185.847565 284.112946,186.867737 
	C284.194885,186.412201 284.276855,185.956665 284.358795,185.501144 
	C286.976624,185.325516 289.594482,185.149887 292.259735,185.913712 
	C292.259735,195.416092 292.259735,204.918472 292.259735,214.693451 
	C292.931671,214.693451 294.816071,214.693451 296.427551,214.693451 
	C296.427551,204.852341 296.427551,195.109268 297.152649,184.954193 
	C300.109741,185.746201 303.066803,186.538208 306.194061,187.375793 
	C306.284271,187.018204 306.735931,185.227875 307.339600,182.835052 
	C303.044342,183.059662 299.423645,183.248993 295.150330,183.371185 
	C294.495392,183.393555 293.840454,183.415939 292.295593,183.109207 
M68.295631,183.109222 
	C64.910683,183.109222 61.525734,183.109222 57.300564,183.109222 
	C58.586212,184.827393 59.349575,185.847565 60.112938,186.867737 
	C60.195312,186.412186 60.277687,185.956619 60.360062,185.501068 
	C62.977482,185.325470 65.594902,185.149872 68.259727,185.913712 
	C68.259727,195.416092 68.259727,204.918457 68.259727,214.693451 
	C68.931686,214.693451 70.816086,214.693451 72.427597,214.693451 
	C72.427597,204.852356 72.427597,195.109268 73.152664,184.954163 
	C76.109734,185.746185 79.066795,186.538223 82.194054,187.375839 
	C82.287437,187.005692 82.737320,185.222397 83.339584,182.835052 
	C79.048347,183.059448 75.425674,183.248886 71.150337,183.371185 
	C70.495399,183.393555 69.840469,183.415939 68.295631,183.109222 
M265.032806,198.030533 
	C260.702393,198.006577 256.371979,197.982605 251.883438,197.047577 
	C252.624557,192.439606 249.756165,187.161133 254.691544,183.225571 
	C251.145889,183.225571 247.851791,183.225571 244.503845,183.225571 
	C248.749802,187.287842 248.687042,211.483414 244.455780,214.818680 
	C247.853989,214.818680 251.229462,214.818680 253.945007,214.818680 
	C253.249283,213.211792 252.095795,211.654388 251.966690,210.016251 
	C251.707336,206.725540 252.006958,203.390778 252.993835,200.046951 
	C257.303131,200.053589 261.612396,200.060226 266.104187,200.970581 
	C266.104187,205.487564 266.104187,210.004547 266.104187,214.693054 
	C267.176178,214.693054 269.193573,214.693054 270.620361,214.693054 
	C271.034027,203.946747 268.780762,193.407471 271.816833,183.390656 
	C270.115845,183.390656 266.923981,183.390656 263.643097,183.390656 
	C268.154816,187.793472 265.435425,193.125076 265.032806,198.030533 
M166.886185,214.983673 
	C171.100693,214.983673 175.315201,214.983673 179.529724,214.983673 
	C179.465210,214.391052 179.400711,213.798431 179.336212,213.205826 
	C177.235062,213.446930 175.139175,213.800385 173.031387,213.898987 
	C170.715775,214.007339 168.389160,213.880981 165.645355,213.138763 
	C163.719223,204.396729 164.756836,186.130981 167.284363,183.356674 
	C164.235489,183.356674 161.131226,183.356674 157.911377,183.356674 
	C162.090225,187.284470 162.087784,211.582550 158.068741,214.801346 
	C160.675720,214.801346 163.325073,214.801346 166.886185,214.983673 
M194.305359,183.310196 
	C192.552002,183.310196 190.798630,183.310196 190.128571,183.310196 
	C193.603989,193.563217 191.213684,204.126160 191.459396,214.730103 
	C192.807953,214.730103 194.318390,214.730103 195.977661,214.730103 
	C195.977661,206.148590 195.858932,197.857758 196.058777,189.574615 
	C196.110565,187.427994 197.159744,185.305420 197.712692,183.309296 
	C197.394211,183.309296 196.232468,183.309296 194.305359,183.310196 
M45.632130,199.905090 
	C43.713089,198.606812 41.711765,197.412842 39.897560,195.981674 
	C37.981476,194.470184 35.486618,193.044067 34.647167,191.003632 
	C33.853195,189.073746 34.879292,186.395096 35.094509,184.153778 
	C29.705193,186.280640 28.676817,192.579391 33.515568,196.964386 
	C36.069122,199.278503 39.342121,200.791656 41.940712,203.065872 
	C43.438389,204.376587 44.843605,206.377426 45.175499,208.263824 
	C45.479542,209.991898 44.285709,211.983490 43.278744,215.521317 
	C45.767174,213.368942 47.943218,212.341293 48.680454,210.676498 
	C50.369759,206.861740 49.482830,203.212204 45.632130,199.905090 
M104.657883,197.770401 
	C104.958611,200.848862 106.287178,203.475510 107.622459,206.250870 
	C108.800903,208.700256 112.157883,211.928329 107.217285,214.830627 
	C110.707733,214.830627 113.625694,214.830627 115.790604,214.830627 
	C111.616814,204.355453 107.387085,193.739929 102.936279,182.569519 
	C101.451553,185.644363 100.355217,187.914856 99.245857,190.212311 
	C104.137199,190.351852 102.551880,194.918701 104.657883,197.770401 
M125.503632,184.386322 
	C126.005157,184.992599 126.937729,185.594650 126.943687,186.205765 
	C127.036057,195.669067 127.008209,205.133545 127.008209,214.676392 
	C128.275055,214.676392 130.279861,214.676392 131.857758,214.676392 
	C131.857758,204.320419 131.857758,194.313049 131.857758,184.088821 
	C129.840500,184.088821 128.049408,184.088821 125.503632,184.386322 
M213.032455,196.877930 
	C214.314667,192.649506 215.596893,188.421082 216.986282,183.839249 
	C210.310593,187.448456 208.315338,193.354813 208.429657,200.116211 
	C208.525650,205.794266 210.040939,211.001465 215.398773,213.694260 
	C214.593658,208.333313 213.799271,203.043823 213.032455,196.877930 
M32.316200,213.974121 
	C33.201954,213.974121 34.087704,213.974121 34.891823,213.974121 
	C33.585979,210.815994 32.380600,207.900848 31.175222,204.985703 
	C30.232622,208.132339 30.229401,211.282608 30.296925,214.431366 
	C30.297403,214.453690 31.270273,214.455170 32.316200,213.974121 
M164.158630,242.110825 
	C162.980072,244.215286 161.801498,246.319748 160.090973,249.374069 
	C163.058807,247.188751 164.649307,246.017624 166.305344,244.798233 
	C166.006638,244.311905 165.410660,243.341614 164.158630,242.110825 
M153.257767,249.608963 
	C155.034225,250.276108 156.810684,250.943253 158.673874,251.642960 
	C158.691681,248.743530 157.111710,248.069305 153.257767,249.608963 
M95.934929,203.934601 
	C96.241013,202.824661 96.547089,201.714706 96.853172,200.604767 
	C96.349709,200.541351 95.846252,200.477936 95.342789,200.414536 
	C95.342789,201.657288 95.342789,202.900055 95.934929,203.934601 
M98.662514,195.766296 
	C98.272301,195.714050 97.882095,195.661804 97.491875,195.609558 
	C97.489342,195.888947 97.486809,196.168335 97.484283,196.447723 
	C97.876099,196.403824 98.267914,196.359924 98.662514,195.766296 
M153.471634,253.472458 
	C153.471634,253.472458 153.523102,253.445038 153.471634,253.472458 
M151.611572,251.518173 
	C151.611572,251.518173 151.514389,251.567902 151.611572,251.518173 
M167.343094,243.492584 
	C167.343094,243.492584 167.559082,243.612732 167.559082,243.612732 
	C167.559082,243.612732 167.524429,243.359650 167.343094,243.492584 
M37.525982,215.506882 
	C37.525982,215.506882 37.486927,215.508286 37.525982,215.506882 
z"/>
<path fill="#F7B097" opacity="1.000000" stroke="none" 
	d="
M122.975090,49.822052 
	C124.483826,48.740383 125.992561,47.658714 128.126450,46.365654 
	C131.103531,45.563206 133.482544,44.367977 135.803299,44.472084 
	C168.496735,45.938679 201.182922,47.568985 233.869003,49.196529 
	C238.788940,49.441509 243.699539,49.873890 248.614456,50.219582 
	C248.606247,50.658981 248.598038,51.098377 248.589844,51.537773 
	C245.733566,51.720684 242.877274,51.903595 239.650299,52.021809 
	C238.403885,52.108479 237.528168,52.259846 236.652466,52.411213 
	C236.669128,52.648815 236.685791,52.886417 236.702454,53.124020 
	C237.779877,53.124020 238.857300,53.124020 240.103668,53.433807 
	C243.806107,55.616413 241.476944,57.065342 239.852249,58.383278 
	C232.361267,64.459915 224.873199,70.542931 217.254639,76.456902 
	C215.945526,77.473114 213.989822,78.226006 212.366089,78.168060 
	C205.570160,77.925537 198.788101,77.309669 191.998795,76.863571 
	C165.326126,75.111000 138.650925,73.396362 111.980766,71.606636 
	C106.009941,71.205948 100.055687,70.558342 94.421432,69.936386 
	C103.374977,64.114319 112.019676,58.408043 120.600922,52.607899 
	C121.574974,51.949528 122.192337,50.763443 122.975090,49.822052 
z"/>
<path fill="#5A774E" opacity="1.000000" stroke="none" 
	d="
M78.111343,116.946808 
	C79.157402,115.685959 80.203461,114.425110 81.679344,113.268478 
	C82.273109,113.120491 82.437050,112.868279 82.600983,112.616074 
	C82.600990,112.616074 82.689575,112.614716 83.016617,112.755371 
	C84.937279,110.581924 86.530907,108.267830 88.124527,105.953728 
	C89.164665,104.693993 90.204811,103.434265 91.715042,102.343086 
	C93.610176,101.641754 95.254883,100.994965 96.413406,99.854362 
	C98.653206,97.649231 100.404068,94.913216 102.778961,92.892441 
	C104.198669,91.684418 106.417870,91.415977 108.277687,90.725182 
	C108.544228,91.172668 108.810760,91.620148 109.077301,92.067627 
	C107.263550,95.389183 105.604362,98.807076 103.605797,102.013428 
	C98.511803,110.185913 99.455414,118.486900 102.992142,126.775444 
	C104.335693,129.924133 106.519569,131.202850 110.550880,130.468948 
	C120.957443,128.574417 131.500900,127.420715 141.999176,126.043541 
	C160.698578,123.590538 179.410950,121.235817 198.106689,118.755600 
	C214.665237,116.558907 231.198868,114.172478 247.763885,112.027229 
	C253.592575,111.272369 254.870575,110.247467 254.933594,104.252831 
	C254.961258,101.621788 254.612030,98.973320 254.265457,96.355064 
	C253.785370,92.728317 253.146439,89.122604 252.575516,85.507889 
	C254.447723,86.682152 255.385025,88.268509 256.100647,89.949242 
	C258.082886,94.604736 259.972748,99.299576 261.899078,103.978867 
	C262.544952,105.728264 263.190826,107.477654 263.679810,109.747101 
	C265.590088,116.973122 267.657227,123.679077 269.982605,131.222763 
	C202.251266,131.222763 135.092819,131.222763 68.084023,131.222763 
	C68.306396,130.227875 68.619675,128.826279 68.932953,127.424698 
	C70.028061,126.002426 71.123177,124.580154 72.682770,123.310425 
	C76.775726,122.794571 78.449615,120.637138 78.111343,116.946808 
z"/>
<path fill="#5A2E22" opacity="1.000000" stroke="none" 
	d="
M261.976807,103.571472 
	C259.972748,99.299576 258.082886,94.604736 256.100647,89.949242 
	C255.385025,88.268509 254.447723,86.682152 252.575516,85.507889 
	C253.146439,89.122604 253.785370,92.728317 254.265457,96.355064 
	C254.612030,98.973320 254.961258,101.621788 254.933594,104.252831 
	C254.870575,110.247467 253.592575,111.272369 247.763885,112.027229 
	C231.198868,114.172478 214.665237,116.558907 198.106689,118.755600 
	C179.410950,121.235817 160.698578,123.590538 141.999176,126.043541 
	C131.500900,127.420715 120.957443,128.574417 110.550880,130.468948 
	C106.519569,131.202850 104.335693,129.924133 102.992142,126.775444 
	C99.455414,118.486900 98.511803,110.185913 103.605797,102.013428 
	C105.604362,98.807076 107.263550,95.389183 109.077301,92.067627 
	C108.810760,91.620148 108.544228,91.172668 108.277687,90.725182 
	C106.417870,91.415977 104.198669,91.684418 102.778961,92.892441 
	C100.404068,94.913216 98.653206,97.649231 96.413406,99.854362 
	C95.254883,100.994965 93.610176,101.641754 92.006599,102.231659 
	C95.098053,98.242279 98.368027,94.532883 101.641525,90.819489 
	C97.112442,87.478638 87.987976,93.511734 86.997871,83.509880 
	C86.479836,78.276802 85.583275,72.768143 92.395630,69.722717 
	C93.457153,69.846779 93.775482,69.935600 94.093803,70.024414 
	C100.055687,70.558342 106.009941,71.205948 111.980766,71.606636 
	C138.650925,73.396362 165.326126,75.111000 191.998795,76.863571 
	C198.788101,77.309669 205.570160,77.925537 212.366089,78.168060 
	C213.989822,78.226006 215.945526,77.473114 217.254639,76.456902 
	C224.873199,70.542931 232.361267,64.459915 239.852249,58.383278 
	C241.476944,57.065342 243.806107,55.616413 240.137802,53.175453 
	C240.009018,52.433708 240.015015,52.260109 240.020996,52.086510 
	C242.877274,51.903595 245.733566,51.720684 248.589844,51.537773 
	C248.598038,51.098377 248.606247,50.658981 248.614456,50.219582 
	C243.699539,49.873890 238.788940,49.441509 233.869003,49.196529 
	C201.182922,47.568985 168.496735,45.938679 135.803299,44.472084 
	C133.482544,44.367977 131.103531,45.563206 128.359390,46.158749 
	C130.091751,42.679253 133.449036,42.547729 137.005585,42.721500 
	C165.753265,44.126148 194.502548,45.498222 223.251785,46.871132 
	C233.363297,47.354004 243.476028,47.811535 253.452820,48.274357 
	C253.711624,48.845490 253.893509,49.127602 253.971405,49.435974 
	C256.610504,59.885525 257.960938,69.941414 245.085571,75.136009 
	C247.822525,79.348709 248.423431,84.428421 254.494354,83.517487 
	C255.114075,83.424507 256.337982,84.422264 256.569855,85.142868 
	C258.492920,91.119431 260.248413,97.149910 261.976807,103.571472 
M222.637497,92.935005 
	C222.860977,92.784943 223.011444,92.581024 223.651840,91.993546 
	C224.771790,91.001663 225.891754,90.009773 227.511246,88.782768 
	C228.003448,88.243416 228.495667,87.704056 229.541107,86.892708 
	C230.406113,86.022728 231.271133,85.152740 232.744156,84.102646 
	C233.161392,84.070816 233.578644,84.038979 234.139481,84.710320 
	C233.295868,86.023178 232.452255,87.336044 231.130585,89.392853 
	C237.567413,88.576462 243.182190,87.864326 249.749649,87.031364 
	C247.509644,83.286911 245.861557,80.531914 244.248169,77.834938 
	C240.513062,80.082146 237.260574,82.038994 234.147141,83.361351 
	C234.551620,82.419289 234.956100,81.477234 236.002380,80.498535 
	C236.756943,79.826706 237.511520,79.154884 238.626740,78.265823 
	C238.834015,78.080910 239.007431,77.868393 239.832245,77.397789 
	C243.530807,74.369812 247.331238,71.454735 250.876083,68.256371 
	C252.228149,67.036469 253.970505,65.063911 253.817413,63.615978 
	C253.528503,60.883488 252.068283,58.247650 250.848740,55.688953 
	C250.743652,55.468479 248.624725,55.843346 247.751373,56.415230 
	C243.451599,59.230839 239.256500,62.206291 234.453003,65.315804 
	C233.624863,66.161026 232.796738,67.006241 231.383820,68.076134 
	C230.593811,68.727898 229.803787,69.379654 228.475449,70.211723 
	C227.972427,70.752838 227.469391,71.293953 226.394318,72.086456 
	C225.600739,72.734612 224.807159,73.382767 223.446625,74.236099 
	C222.613831,75.066628 221.781036,75.897156 220.329208,77.038162 
	C218.925339,78.108070 217.521469,79.177979 217.270508,79.369240 
	C217.465744,82.337753 217.556992,84.104080 217.707245,85.865379 
	C217.795181,86.896324 217.977219,87.919258 218.474854,89.532089 
	C219.034790,90.694847 219.594742,91.857605 220.319031,93.573730 
	C220.972855,93.412079 221.626678,93.250435 222.637497,92.935005 
M126.043327,74.060699 
	C119.424278,74.060699 112.805222,74.060699 105.205048,74.060699 
	C105.437370,78.056641 105.513092,81.938705 105.991638,85.770470 
	C106.110786,86.724503 107.459396,88.178352 108.364624,88.276192 
	C114.869354,88.979179 121.405479,89.391731 128.016861,89.903046 
	C127.564064,85.321198 127.174728,81.381416 126.779015,77.377182 
	C125.659515,77.126053 124.604263,76.889343 122.229179,76.356560 
	C124.712837,75.926140 125.822578,75.733826 127.423691,75.519989 
	C127.271156,75.082199 127.118629,74.644417 126.043327,74.060699 
M105.869827,105.121872 
	C129.694366,102.278374 153.518921,99.434868 177.343460,96.591362 
	C177.298706,96.151489 177.253967,95.711617 177.209213,95.271751 
	C159.861084,94.166969 142.304703,94.329758 125.235756,91.525597 
	C113.236801,89.554359 108.820854,95.027611 105.157524,104.026657 
	C105.036316,104.324379 105.056290,104.679565 104.720779,105.114502 
	C104.809914,105.071754 104.899055,105.029015 105.869827,105.121872 
M221.327362,96.006721 
	C220.213547,96.341515 219.099716,96.676308 217.063248,96.982407 
	C186.290894,94.257095 156.609909,102.786118 125.446304,105.017685 
	C126.102669,111.251175 126.517563,116.667175 127.307442,122.027931 
	C127.665840,124.460304 128.769760,125.791832 132.116913,125.270485 
	C147.172287,122.925491 162.297485,121.020813 177.409775,119.051460 
	C193.672699,116.932167 209.957840,114.980072 226.204788,112.747635 
	C227.610306,112.554504 229.893753,110.831833 229.913452,109.784760 
	C230.023392,103.936897 229.561783,98.078285 229.295517,92.223351 
	C228.749390,92.057594 228.203278,91.891838 227.657166,91.726082 
	C225.797119,93.158905 223.937088,94.591728 221.327362,96.006721 
M144.638672,91.003876 
	C151.694412,91.421860 158.750137,91.839836 166.173019,92.279572 
	C165.431046,86.497360 164.799942,81.579124 164.144638,76.472321 
	C156.465942,76.472321 148.772385,76.362938 141.084671,76.527161 
	C138.087936,76.591179 136.624924,78.336723 137.335129,81.536835 
	C137.657486,82.989418 137.911362,84.511696 137.843445,85.986107 
	C137.646042,90.271721 139.854736,91.546455 144.638672,91.003876 
M199.450668,91.033508 
	C198.999680,87.279091 198.548676,83.524673 198.041336,79.301247 
	C190.924332,78.741112 183.731232,78.174988 175.274841,77.509438 
	C176.197311,82.610550 176.870819,86.928123 177.843582,91.177185 
	C178.022400,91.958328 179.376877,92.945976 180.253326,93.014740 
	C186.041153,93.468880 191.844986,93.770866 197.648575,93.901848 
	C198.324097,93.917099 199.030121,92.580200 199.450668,91.033508 
M104.458794,124.908836 
	C105.665459,127.921967 107.627304,129.004288 110.423065,127.552284 
	C109.703865,120.828705 109.005188,114.296982 108.306053,107.761017 
	C102.784325,108.126389 101.696556,109.117538 102.223427,114.426582 
	C102.548454,117.701660 103.483360,120.916199 104.458794,124.908836 
M117.978966,108.884819 
	C118.548470,114.873268 119.117973,120.861710 119.731583,127.313858 
	C122.802422,126.508110 124.495743,126.063812 125.751198,125.734398 
	C124.905128,118.737885 124.112175,112.180557 123.192520,104.575523 
	C121.363159,105.787788 119.695847,106.892670 117.978966,108.884819 
M118.053635,126.164688 
	C117.123306,119.665199 116.192978,113.165718 115.232811,106.457741 
	C112.270874,106.027214 110.040070,107.136902 110.415123,110.886536 
	C110.980247,116.536308 111.845428,122.156082 112.636650,128.197845 
	C115.143318,127.530281 116.395493,127.196815 118.053635,126.164688 
M237.634415,97.165352 
	C236.779755,93.980247 237.499298,88.966545 231.136551,91.913689 
	C231.669586,98.479630 232.206116,105.088593 232.765045,111.973358 
	C234.994324,111.404961 236.395142,111.047798 237.783310,110.693855 
	C237.783310,106.320305 237.783310,102.184563 237.634415,97.165352 
M247.025146,102.481339 
	C247.025146,104.869514 247.025146,107.257698 247.025146,109.645874 
	C247.508026,109.886421 247.990906,110.126961 248.473770,110.367500 
	C249.906982,109.112083 252.552475,107.869209 252.565598,106.599106 
	C252.625565,100.798859 251.946793,94.990974 251.543488,89.326324 
	C246.695023,89.121361 245.531631,90.757874 246.203156,94.187759 
	C246.675995,96.602859 246.764191,99.093269 247.025146,102.481339 
M167.382263,80.602821 
	C166.237839,90.454338 168.385925,93.617981 175.408630,92.420143 
	C174.741608,87.443550 174.074600,82.466957 173.379929,77.284088 
	C171.379013,77.284088 169.495514,77.284088 167.990021,77.284088 
	C167.990021,78.349472 167.990021,79.294350 167.382263,80.602821 
M240.018036,104.444046 
	C240.018036,106.517982 240.018036,108.591919 240.018036,110.953156 
	C241.984589,110.460373 243.394684,110.107033 245.424759,109.598335 
	C244.989197,103.138039 244.560486,96.779175 244.096054,89.890717 
	C241.804825,90.221542 240.308212,90.437630 238.673752,90.673630 
	C239.159698,95.314804 239.588730,99.412338 240.018036,104.444046 
M208.380463,85.893425 
	C210.586319,95.391624 211.018524,95.783096 217.390274,94.383453 
	C216.455795,91.124397 215.164932,87.907066 214.669815,84.571617 
	C214.045959,80.368866 211.801178,79.731239 208.224380,80.455750 
	C208.224380,82.153183 208.224380,83.611778 208.380463,85.893425 
M206.741669,86.656677 
	C206.505249,85.533562 206.527893,84.254570 205.968948,83.325500 
	C205.215561,82.073288 204.014252,81.090569 203.005188,79.992188 
	C202.163422,81.308456 200.859161,82.540184 200.599136,83.962776 
	C200.287277,85.668945 200.812637,87.545532 201.069550,89.334808 
	C201.701370,93.735336 204.139755,95.424133 208.698761,94.377533 
	C208.052872,91.895477 207.476257,89.679688 206.741669,86.656677 
M134.103455,77.350227 
	C132.541000,77.350227 130.978531,77.350227 129.492310,77.350227 
	C128.122131,88.040779 129.726669,90.918106 136.211685,88.996735 
	C135.722198,85.364510 135.221313,81.647675 134.103455,77.350227 
M88.801926,77.112556 
	C87.660835,86.006332 89.441978,88.496170 96.002518,86.989014 
	C95.619553,83.478767 95.235397,79.957672 94.843781,76.368134 
	C92.737061,76.368134 90.964996,76.368134 88.801926,77.112556 
M103.012207,78.719147 
	C102.614357,74.773483 98.766647,75.468910 98.280029,76.865852 
	C97.292915,79.699554 97.626694,83.227654 98.302040,86.273018 
	C98.524055,87.274155 101.479729,87.669083 103.981110,88.654800 
	C103.566597,84.733528 103.294342,82.158020 103.012207,78.719147 
z"/>
<path fill="#593325" opacity="1.000000" stroke="none" 
	d="
M68.582436,127.534065 
	C68.619675,128.826279 68.306396,130.227875 68.084023,131.222763 
	C135.092819,131.222763 202.251266,131.222763 269.982605,131.222763 
	C267.657227,123.679077 265.590088,116.973122 263.814514,110.073685 
	C265.615967,113.279648 267.155548,116.666275 268.630493,120.080849 
	C273.717773,131.858261 274.537537,144.078552 272.366882,157.447952 
	C259.611755,157.702835 246.841064,158.085327 234.068146,158.186844 
	C207.266754,158.399857 180.456436,158.920868 153.664200,158.465851 
	C125.563728,157.988602 97.481491,156.477036 69.387573,155.527252 
	C65.570168,155.398193 63.679619,154.199036 63.722343,150.048401 
	C63.773472,145.081711 62.635487,140.028366 63.256062,135.171448 
	C63.598175,132.493896 66.489723,130.142090 68.582436,127.534065 
M167.500000,133.994766 
	C139.215866,133.994766 110.931747,133.994766 82.631409,133.994766 
	C80.698761,141.126099 79.961838,147.617340 83.444687,154.202271 
	C139.080994,156.919495 194.718903,157.995316 250.980637,155.537613 
	C251.359039,150.781937 251.728882,146.134079 252.140991,140.954849 
	C247.709747,140.954849 244.279495,140.954849 240.849228,140.954849 
	C240.839279,140.696182 240.829330,140.437515 240.819382,140.178848 
	C244.492416,139.954971 248.165466,139.731110 251.838516,139.507248 
	C251.793259,138.897720 251.747986,138.288208 251.702728,137.678680 
	C225.765762,137.678680 199.828812,137.678680 173.891846,137.678680 
	C173.883118,137.081360 173.874390,136.484039 173.865646,135.886719 
	C199.706070,135.886719 225.546494,135.886719 251.386917,135.886719 
	C251.371796,135.256073 251.356674,134.625412 251.341553,133.994766 
	C223.727707,133.994766 196.113846,133.994766 167.500000,133.994766 
M267.277222,137.136383 
	C262.888611,137.245804 258.500031,137.355225 254.111420,137.464645 
	C254.125214,138.146805 254.139008,138.828949 254.152802,139.511108 
	C258.134705,139.717087 262.116608,139.923080 266.098480,140.129059 
	C266.088959,140.473145 266.079407,140.817245 266.069885,141.161331 
	C262.173889,141.161331 258.277893,141.161331 254.301041,141.161331 
	C253.888138,146.275040 253.520737,150.825165 253.117371,155.820938 
	C257.776794,155.820938 262.051910,155.885590 266.324005,155.800247 
	C269.671906,155.733368 271.413422,154.245392 271.120667,150.543762 
	C270.859741,147.245300 271.396362,143.874802 271.027161,140.598480 
	C270.887268,139.356781 269.198853,138.289551 267.277222,137.136383 
M73.515007,150.951706 
	C75.279633,150.951706 77.044266,150.951706 78.819618,150.951706 
	C79.116188,145.004730 79.376022,139.794571 79.643051,134.440063 
	C74.731430,134.440063 70.157814,134.440063 65.371353,134.440063 
	C65.371353,138.963837 65.371353,143.173233 65.371353,147.608521 
	C68.531799,147.844528 71.284355,148.050079 74.036911,148.255646 
	C74.025223,148.500687 74.013535,148.745728 74.001854,148.990768 
	C71.510582,149.102890 69.019318,149.215012 66.528046,149.327133 
	C66.530991,149.849670 66.533928,150.372208 66.536873,150.894745 
	C68.555824,150.894745 70.574776,150.894745 73.515007,150.951706 
M259.673462,133.178543 
	C257.788147,133.415466 255.902832,133.652390 254.017532,133.889313 
	C254.078995,134.368301 254.140472,134.847275 254.201935,135.326263 
	C259.759125,135.326263 265.316345,135.326263 270.873535,135.326263 
	C270.894318,134.610489 270.915131,133.894699 270.935913,133.178925 
	C267.495026,133.178925 264.054169,133.178925 259.673462,133.178543 
z"/>
<path fill="#2B2B2B" opacity="1.000000" stroke="none" 
	d="
M252.075897,200.074203 
	C252.006958,203.390778 251.707336,206.725540 251.966690,210.016251 
	C252.095795,211.654388 253.249283,213.211792 253.945007,214.818680 
	C251.229462,214.818680 247.853989,214.818680 244.455780,214.818680 
	C248.687042,211.483414 248.749802,187.287842 244.503845,183.225571 
	C247.851791,183.225571 251.145889,183.225571 254.691544,183.225571 
	C249.756165,187.161133 252.624557,192.439606 251.927368,197.855194 
	C252.006165,199.133270 252.041031,199.603729 252.075897,200.074203 
z"/>
<path fill="#0E0E0E" opacity="1.000000" stroke="none" 
	d="
M165.974411,214.801346 
	C163.325073,214.801346 160.675720,214.801346 158.068741,214.801346 
	C162.087784,211.582550 162.090225,187.284470 157.911377,183.356674 
	C161.131226,183.356674 164.235489,183.356674 167.284363,183.356674 
	C164.756836,186.130981 163.719223,204.396729 165.806854,213.731354 
	C165.968353,214.323944 165.974411,214.801346 165.974411,214.801346 
z"/>
<path fill="#161616" opacity="1.000000" stroke="none" 
	d="
M265.953217,197.959183 
	C265.435425,193.125076 268.154816,187.793472 263.643097,183.390656 
	C266.923981,183.390656 270.115845,183.390656 271.816833,183.390656 
	C268.780762,193.407471 271.034027,203.946747 270.620361,214.693054 
	C269.193573,214.693054 267.176178,214.693054 266.104187,214.693054 
	C266.104187,210.004547 266.104187,205.487564 266.059570,200.167938 
	C265.994385,198.896576 265.973816,198.427887 265.953217,197.959183 
z"/>
<path fill="#0E0E0E" opacity="1.000000" stroke="none" 
	d="
M194.688034,183.309753 
	C196.232468,183.309296 197.394211,183.309296 197.712692,183.309296 
	C197.159744,185.305420 196.110565,187.427994 196.058777,189.574615 
	C195.858932,197.857758 195.977661,206.148590 195.977661,214.730103 
	C194.318390,214.730103 192.807953,214.730103 191.459396,214.730103 
	C191.213684,204.126160 193.603989,193.563217 190.128571,183.310196 
	C190.798630,183.310196 192.552002,183.310196 194.688034,183.309753 
z"/>
<path fill="#111111" opacity="1.000000" stroke="none" 
	d="
M45.905945,200.140259 
	C49.482830,203.212204 50.369759,206.861740 48.680454,210.676498 
	C47.943218,212.341293 45.767174,213.368942 43.278744,215.521317 
	C44.285709,211.983490 45.479542,209.991898 45.175499,208.263824 
	C44.843605,206.377426 43.438389,204.376587 41.940712,203.065872 
	C39.342121,200.791656 36.069122,199.278503 33.515568,196.964386 
	C28.676817,192.579391 29.705193,186.280640 35.094509,184.153778 
	C34.879292,186.395096 33.853195,189.073746 34.647167,191.003632 
	C35.486618,193.044067 37.981476,194.470184 39.897560,195.981674 
	C41.711765,197.412842 43.713089,198.606812 45.905945,200.140259 
z"/>
<path fill="#131313" opacity="1.000000" stroke="none" 
	d="
M104.483047,197.438843 
	C102.551880,194.918701 104.137199,190.351852 99.245857,190.212311 
	C100.355217,187.914856 101.451553,185.644363 102.936279,182.569519 
	C107.387085,193.739929 111.616814,204.355453 115.790604,214.830627 
	C113.625694,214.830627 110.707733,214.830627 107.217285,214.830627 
	C112.157883,211.928329 108.800903,208.700256 107.622459,206.250870 
	C106.287178,203.475510 104.958611,200.848862 104.483047,197.438843 
z"/>
<path fill="#111111" opacity="1.000000" stroke="none" 
	d="
M125.880981,184.237579 
	C128.049408,184.088821 129.840500,184.088821 131.857758,184.088821 
	C131.857758,194.313049 131.857758,204.320419 131.857758,214.676392 
	C130.279861,214.676392 128.275055,214.676392 127.008209,214.676392 
	C127.008209,205.133545 127.036057,195.669067 126.943687,186.205765 
	C126.937729,185.594650 126.005157,184.992599 125.880981,184.237579 
z"/>
<path fill="#131313" opacity="1.000000" stroke="none" 
	d="
M213.018677,197.316132 
	C213.799271,203.043823 214.593658,208.333313 215.398773,213.694260 
	C210.040939,211.001465 208.525650,205.794266 208.429657,200.116211 
	C208.315338,193.354813 210.310593,187.448456 216.986282,183.839249 
	C215.596893,188.421082 214.314667,192.649506 213.018677,197.316132 
z"/>
<path fill="#000000" opacity="1.000000" stroke="none" 
	d="
M72.427597,185.366180 
	C72.427597,195.109268 72.427597,204.852356 72.427597,214.693451 
	C70.816086,214.693451 68.931686,214.693451 68.259727,214.693451 
	C68.259727,204.918457 68.259727,195.416092 68.461960,185.342194 
	C68.837975,184.326553 69.011749,183.882431 69.185532,183.438324 
	C69.840469,183.415939 70.495399,183.393555 71.497726,183.748901 
	C72.039276,184.539810 72.233437,184.953003 72.427597,185.366180 
z"/>
<path fill="#000000" opacity="1.000000" stroke="none" 
	d="
M296.427551,185.366180 
	C296.427551,195.109268 296.427551,204.852341 296.427551,214.693451 
	C294.816071,214.693451 292.931671,214.693451 292.259735,214.693451 
	C292.259735,204.918472 292.259735,195.416092 292.461975,185.342178 
	C292.837952,184.326538 293.011719,183.882431 293.185516,183.438324 
	C293.840454,183.415939 294.495392,183.393555 295.497742,183.748901 
	C296.039246,184.539825 296.233398,184.953003 296.427551,185.366180 
z"/>
<path fill="#1B1B1B" opacity="1.000000" stroke="none" 
	d="
M140.985138,200.132477 
	C142.659958,203.570129 144.221619,207.070038 146.062408,210.416397 
	C146.856369,211.859756 148.227829,212.985413 149.380066,214.304764 
	C146.253189,216.859787 143.452271,216.219894 141.927765,211.576569 
	C140.803299,208.151733 139.768356,204.697525 138.353073,200.731583 
	C139.003464,200.182007 139.994293,200.157242 140.985138,200.132477 
z"/>
<path fill="#373737" opacity="1.000000" stroke="none" 
	d="
M228.924850,212.925766 
	C229.034821,208.793625 231.554306,203.976608 224.481049,201.384125 
	C228.912064,201.384125 232.140472,201.384125 234.638397,201.384125 
	C234.294449,205.611420 233.945374,209.901947 233.598587,214.164139 
	C232.640182,213.896500 231.434998,213.559937 229.745453,213.227844 
	C229.261093,213.232315 228.924850,212.925766 228.924850,212.925766 
z"/>
<path fill="#6B3C31" opacity="1.000000" stroke="none" 
	d="
M94.421432,69.936386 
	C93.775482,69.935600 93.457153,69.846779 92.687195,69.552521 
	C102.230240,62.835194 112.224930,56.323303 122.597351,49.816734 
	C122.192337,50.763443 121.574974,51.949528 120.600922,52.607899 
	C112.019676,58.408043 103.374977,64.114319 94.421432,69.936386 
z"/>
<path fill="#161616" opacity="1.000000" stroke="none" 
	d="
M139.976028,198.007919 
	C143.562454,191.652084 142.902740,187.567184 137.403076,184.713806 
	C136.942520,184.499878 137.105713,184.043106 137.105713,184.043106 
	C141.561859,183.538437 145.305710,184.732941 146.346649,189.488220 
	C147.179428,193.292603 146.084732,196.721130 141.121887,198.075439 
	C140.326004,198.053284 140.151016,198.030594 139.976028,198.007919 
z"/>
<path fill="#434343" opacity="1.000000" stroke="none" 
	d="
M32.052650,214.220245 
	C31.270273,214.455170 30.297403,214.453690 30.296925,214.431366 
	C30.229401,211.282608 30.232622,208.132339 31.175222,204.985703 
	C32.380600,207.900848 33.585979,210.815994 34.891823,213.974121 
	C34.087704,213.974121 33.201954,213.974121 32.052650,214.220245 
z"/>
<path fill="#5E5E5E" opacity="1.000000" stroke="none" 
	d="
M296.790100,185.160187 
	C296.233398,184.953003 296.039246,184.539825 295.824036,183.782471 
	C299.423645,183.248993 303.044342,183.059662 307.339600,182.835052 
	C306.735931,185.227875 306.284271,187.018204 306.194061,187.375793 
	C303.066803,186.538208 300.109741,185.746201 296.790100,185.160187 
z"/>
<path fill="#5E5E5E" opacity="1.000000" stroke="none" 
	d="
M72.790131,185.160172 
	C72.233437,184.953003 72.039276,184.539810 71.824059,183.782471 
	C75.425674,183.248886 79.048347,183.059448 83.339584,182.835052 
	C82.737320,185.222397 82.287437,187.005692 82.194054,187.375839 
	C79.066795,186.538223 76.109734,185.746185 72.790131,185.160172 
z"/>
<path fill="#8D8D8D" opacity="1.000000" stroke="none" 
	d="
M265.493011,197.994858 
	C265.973816,198.427887 265.994385,198.896576 265.968323,199.716080 
	C261.612396,200.060226 257.303131,200.053589 252.534866,200.060577 
	C252.041031,199.603729 252.006165,199.133270 252.006424,198.310715 
	C256.371979,197.982605 260.702393,198.006577 265.493011,197.994858 
z"/>
<path fill="#5E5E5E" opacity="1.000000" stroke="none" 
	d="
M68.740585,183.273773 
	C69.011749,183.882431 68.837975,184.326553 68.438263,184.872467 
	C65.594902,185.149872 62.977482,185.325470 60.360062,185.501068 
	C60.277687,185.956619 60.195312,186.412186 60.112938,186.867737 
	C59.349575,185.847565 58.586212,184.827393 57.300564,183.109222 
	C61.525734,183.109222 64.910683,183.109222 68.740585,183.273773 
z"/>
<path fill="#5E5E5E" opacity="1.000000" stroke="none" 
	d="
M292.740540,183.273773 
	C293.011719,183.882431 292.837952,184.326538 292.438232,184.872467 
	C289.594482,185.149887 286.976624,185.325516 284.358795,185.501144 
	C284.276855,185.956665 284.194885,186.412201 284.112946,186.867737 
	C283.349579,185.847565 282.586212,184.827393 281.300537,183.109207 
	C285.525726,183.109207 288.910645,183.109207 292.740540,183.273773 
z"/>
<path fill="#282828" opacity="1.000000" stroke="none" 
	d="
M166.430298,214.892517 
	C165.974411,214.801346 165.968353,214.323944 166.017853,214.090424 
	C168.389160,213.880981 170.715775,214.007339 173.031387,213.898987 
	C175.139175,213.800385 177.235062,213.446930 179.336212,213.205826 
	C179.400711,213.798431 179.465210,214.391052 179.529724,214.983673 
	C175.315201,214.983673 171.100693,214.983673 166.430298,214.892517 
z"/>
<path fill="#C1C1C1" opacity="1.000000" stroke="none" 
	d="
M164.486664,242.241074 
	C165.410660,243.341614 166.006638,244.311905 166.305344,244.798233 
	C164.649307,246.017624 163.058807,247.188751 160.090973,249.374069 
	C161.801498,246.319748 162.980072,244.215286 164.486664,242.241074 
z"/>
<path fill="#593325" opacity="1.000000" stroke="none" 
	d="
M87.890579,106.203461 
	C86.530907,108.267830 84.937279,110.581924 82.997414,112.715439 
	C84.319664,110.507645 85.988144,108.480415 87.890579,106.203461 
z"/>
<path fill="#593325" opacity="1.000000" stroke="none" 
	d="
M77.865891,117.176598 
	C78.449615,120.637138 76.775726,122.794571 72.964081,123.182808 
	C74.394104,121.070557 76.007278,119.238472 77.865891,117.176598 
z"/>
<path fill="#C1C1C1" opacity="1.000000" stroke="none" 
	d="
M153.480621,249.383148 
	C157.111710,248.069305 158.691681,248.743530 158.673874,251.642960 
	C156.810684,250.943253 155.034225,250.276108 153.480621,249.383148 
z"/>
<path fill="#F2F2F2" opacity="1.000000" stroke="none" 
	d="
M139.687515,198.101913 
	C140.151016,198.030594 140.326004,198.053284 140.757233,198.142334 
	C141.009598,198.636200 141.005707,199.063751 140.993469,199.811890 
	C139.994293,200.157242 139.003464,200.182007 137.996155,200.606979 
	C137.370453,200.426529 136.761215,199.845871 136.151978,199.265213 
	C137.234314,198.908783 138.316666,198.552338 139.687515,198.101913 
z"/>
<path fill="#F2F2F2" opacity="1.000000" stroke="none" 
	d="
M95.638855,204.038696 
	C95.342789,202.900055 95.342789,201.657288 95.342789,200.414536 
	C95.846252,200.477936 96.349709,200.541351 96.853172,200.604767 
	C96.547089,201.714706 96.241013,202.824661 95.638855,204.038696 
z"/>
<path fill="#F2F2F2" opacity="1.000000" stroke="none" 
	d="
M98.661118,196.041168 
	C98.267914,196.359924 97.876099,196.403824 97.484283,196.447723 
	C97.486809,196.168335 97.489342,195.888947 97.491882,195.609558 
	C97.882095,195.661804 98.272301,195.714050 98.661118,196.041168 
z"/>
<path fill="#F2F2F2" opacity="1.000000" stroke="none" 
	d="
M136.747314,184.013611 
	C137.105713,184.043106 136.942520,184.499878 137.023956,184.728317 
	C136.033340,184.956757 134.961288,184.956757 133.889221,184.956757 
	C133.884644,184.734772 133.880051,184.512787 133.875473,184.290802 
	C134.713287,184.188568 135.551117,184.086334 136.747314,184.013611 
z"/>
<path fill="#373737" opacity="1.000000" stroke="none" 
	d="
M229.423706,213.391434 
	C229.067535,213.690170 228.548737,213.829788 228.029953,213.969421 
	C228.190552,213.636597 228.351151,213.303787 228.718292,212.948364 
	C228.924850,212.925766 229.261093,213.232315 229.423706,213.391434 
z"/>
<path fill="#C1C1C1" opacity="1.000000" stroke="none" 
	d="
M153.497375,253.458740 
	C153.523102,253.445038 153.471634,253.472458 153.497375,253.458740 
z"/>
<path fill="#C1C1C1" opacity="1.000000" stroke="none" 
	d="
M151.562988,251.543030 
	C151.514389,251.567902 151.611572,251.518173 151.562988,251.543030 
z"/>
<path fill="#C1C1C1" opacity="1.000000" stroke="none" 
	d="
M167.433762,243.426117 
	C167.524429,243.359650 167.559082,243.612732 167.559082,243.612732 
	C167.559082,243.612732 167.343094,243.492584 167.433762,243.426117 
z"/>
<path fill="#434343" opacity="1.000000" stroke="none" 
	d="
M37.506454,215.507584 
	C37.486927,215.508286 37.525982,215.506882 37.506454,215.507584 
z"/>
<path fill="#593325" opacity="1.000000" stroke="none" 
	d="
M82.358139,112.578430 
	C82.437050,112.868279 82.273109,113.120491 81.970581,113.157562 
	C81.831993,112.942413 82.115303,112.540802 82.358139,112.578430 
z"/>
<path fill="#774134" opacity="1.000000" stroke="none" 
	d="
M239.650299,52.021812 
	C240.015015,52.260109 240.009018,52.433708 239.968872,52.865662 
	C238.857300,53.124020 237.779877,53.124020 236.702454,53.124020 
	C236.685791,52.886417 236.669128,52.648815 236.652466,52.411213 
	C237.528168,52.259846 238.403885,52.108479 239.650299,52.021812 
z"/>
<path fill="#4F7574" opacity="1.000000" stroke="none" 
	d="
M222.077026,96.024551 
	C223.937088,94.591728 225.797119,93.158905 227.657166,91.726082 
	C228.203278,91.891838 228.749390,92.057594 229.295517,92.223351 
	C229.561783,98.078285 230.023392,103.936897 229.913452,109.784760 
	C229.893753,110.831833 227.610306,112.554504 226.204788,112.747635 
	C209.957840,114.980072 193.672699,116.932167 177.409775,119.051460 
	C162.297485,121.020813 147.172287,122.925491 132.116913,125.270485 
	C128.769760,125.791832 127.665840,124.460304 127.307442,122.027931 
	C126.517563,116.667175 126.102669,111.251175 125.446304,105.017685 
	C156.609909,102.786118 186.290894,94.257095 217.272461,97.299736 
	C203.322678,99.447655 189.163666,101.278244 174.580887,103.080978 
	C163.103210,104.405708 152.049316,105.758293 140.610443,107.113647 
	C139.421738,107.315285 138.625443,107.553726 137.813049,107.706573 
	C132.457672,108.714149 130.372894,111.112030 131.085922,115.475502 
	C131.794083,119.809303 134.311508,121.582779 139.424896,120.927856 
	C147.621582,119.878021 155.789276,118.604248 163.976974,117.481651 
	C182.320190,114.966637 200.684509,112.595901 218.994308,109.859024 
	C221.390686,109.500824 224.923645,107.718315 225.413284,105.912910 
	C226.027847,103.646828 224.074677,100.666702 223.165390,98.016800 
	C222.923294,97.311302 222.446228,96.686440 222.077026,96.024551 
z"/>
<path fill="#4F7775" opacity="1.000000" stroke="none" 
	d="
M105.010445,105.007965 
	C105.056290,104.679565 105.036316,104.324379 105.157524,104.026657 
	C108.820854,95.027611 113.236801,89.554359 125.235756,91.525597 
	C142.304703,94.329758 159.861084,94.166969 177.209213,95.271751 
	C177.253967,95.711617 177.298706,96.151489 177.343460,96.591362 
	C153.518921,99.434868 129.694366,102.278374 105.434418,105.060410 
	C104.999016,104.998940 105.010445,105.007965 105.010445,105.007965 
z"/>
<path fill="#C0803F" opacity="1.000000" stroke="none" 
	d="
M227.011719,89.017883 
	C225.891754,90.009773 224.771790,91.001663 223.342896,91.753395 
	C223.119690,87.354286 221.708633,86.061920 218.116928,88.945793 
	C217.977219,87.919258 217.795181,86.896324 217.707245,85.865379 
	C217.556992,84.104080 217.465744,82.337753 217.270508,79.369240 
	C217.521469,79.177979 218.925339,78.108070 220.652313,77.323509 
	C221.219681,79.049118 221.463943,80.489380 221.708221,81.929642 
	C222.476669,81.895920 223.245132,81.862198 224.013580,81.828476 
	C224.013580,79.229294 224.013580,76.630112 224.013580,74.030930 
	C224.807159,73.382767 225.600739,72.734612 226.710739,72.267960 
	C227.305481,72.727859 227.583801,73.006256 227.862122,73.284660 
	C228.246017,72.200249 228.629898,71.115829 229.013779,70.031418 
	C229.803787,69.379654 230.593811,68.727898 231.715897,68.294777 
	C234.142059,69.548355 234.448929,69.199043 235.024460,65.125320 
	C239.256500,62.206291 243.451599,59.230839 247.751373,56.415230 
	C248.624725,55.843346 250.743652,55.468479 250.848740,55.688953 
	C252.068283,58.247650 253.528503,60.883488 253.817413,63.615978 
	C253.970505,65.063911 252.228149,67.036469 250.876083,68.256371 
	C247.331238,71.454735 243.530807,74.369812 239.447784,77.167786 
	C238.842163,76.597435 238.620987,76.257088 238.399796,75.916748 
	C238.355225,76.772186 238.310654,77.627617 238.266083,78.483055 
	C237.511520,79.154884 236.756943,79.826706 235.473907,80.189720 
	C231.200058,79.555496 232.431305,82.406212 232.136139,84.282753 
	C231.271133,85.152740 230.406113,86.022728 229.266815,86.633324 
	C228.632935,84.986877 228.273315,83.599815 227.792358,81.744705 
	C223.902313,84.523430 224.562668,86.746124 227.011719,89.017883 
z"/>
<path fill="#F4AE95" opacity="1.000000" stroke="none" 
	d="
M144.171478,91.001617 
	C139.854736,91.546455 137.646042,90.271721 137.843445,85.986107 
	C137.911362,84.511696 137.657486,82.989418 137.335129,81.536835 
	C136.624924,78.336723 138.087936,76.591179 141.084671,76.527161 
	C148.772385,76.362938 156.465942,76.472321 164.144638,76.472321 
	C164.799942,81.579124 165.431046,86.497360 166.173019,92.279572 
	C158.750137,91.839836 151.694412,91.421860 144.171478,91.001617 
z"/>
<path fill="#502D22" opacity="1.000000" stroke="none" 
	d="
M221.702194,96.015640 
	C222.446228,96.686440 222.923294,97.311302 223.165390,98.016800 
	C224.074677,100.666702 226.027847,103.646828 225.413284,105.912910 
	C224.923645,107.718315 221.390686,109.500824 218.994308,109.859024 
	C200.684509,112.595901 182.320190,114.966637 163.976974,117.481651 
	C155.789276,118.604248 147.621582,119.878021 139.424896,120.927856 
	C134.311508,121.582779 131.794083,119.809303 131.085922,115.475502 
	C130.372894,111.112030 132.457672,108.714149 137.813049,107.706573 
	C138.625443,107.553726 139.421738,107.315285 140.612396,107.416550 
	C140.998306,108.121933 140.997284,108.527191 140.597900,108.970146 
	C138.096924,109.778320 135.481705,110.046631 134.066895,111.490883 
	C133.077591,112.500786 132.938232,116.093140 133.819000,116.808434 
	C135.478424,118.156059 138.232361,118.995209 140.383453,118.749809 
	C148.757645,117.794418 157.057388,116.208717 165.415054,115.081535 
	C183.610687,112.627563 201.824661,110.309456 220.031616,107.939507 
	C223.162354,107.531990 224.338074,105.578178 223.883072,102.681290 
	C223.434052,99.822388 221.833511,99.323357 218.859756,99.719719 
	C204.268707,101.664513 189.627319,103.231575 175.002197,104.627869 
	C175.001999,103.918716 175.003326,103.513771 175.004654,103.108833 
	C189.163666,101.278244 203.322678,99.447655 217.733795,97.314079 
	C219.099716,96.676308 220.213547,96.341515 221.702194,96.015640 
z"/>
<path fill="#F6AF96" opacity="1.000000" stroke="none" 
	d="
M199.586334,91.451843 
	C199.030121,92.580200 198.324097,93.917099 197.648575,93.901848 
	C191.844986,93.770866 186.041153,93.468880 180.253326,93.014740 
	C179.376877,92.945976 178.022400,91.958328 177.843582,91.177185 
	C176.870819,86.928123 176.197311,82.610550 175.274841,77.509438 
	C183.731232,78.174988 190.924332,78.741112 198.041336,79.301247 
	C198.548676,83.524673 198.999680,87.279091 199.586334,91.451843 
z"/>
<path fill="#F6AF96" opacity="1.000000" stroke="none" 
	d="
M126.932312,75.541512 
	C125.822578,75.733826 124.712837,75.926140 122.229179,76.356560 
	C124.604263,76.889343 125.659515,77.126053 126.779015,77.377182 
	C127.174728,81.381416 127.564064,85.321198 128.016861,89.903046 
	C121.405479,89.391731 114.869354,88.979179 108.364624,88.276192 
	C107.459396,88.178352 106.110786,86.724503 105.991638,85.770470 
	C105.513092,81.938705 105.437370,78.056641 105.205048,74.060699 
	C112.805222,74.060699 119.424278,74.060699 126.501312,74.356247 
	C126.936241,74.947945 126.927246,75.244514 126.932312,75.541512 
M121.389557,75.479111 
	C121.389557,75.479111 121.565170,75.578133 121.565170,75.578133 
	C121.565170,75.578133 121.539726,75.385414 121.389557,75.479111 
z"/>
<path fill="#4F7271" opacity="1.000000" stroke="none" 
	d="
M104.301620,124.533379 
	C103.483360,120.916199 102.548454,117.701660 102.223427,114.426582 
	C101.696556,109.117538 102.784325,108.126389 108.306053,107.761017 
	C109.005188,114.296982 109.703865,120.828705 110.423065,127.552284 
	C107.627304,129.004288 105.665459,127.921967 104.301620,124.533379 
z"/>
<path fill="#F1AB93" opacity="1.000000" stroke="none" 
	d="
M118.003754,108.441177 
	C119.695847,106.892670 121.363159,105.787788 123.192520,104.575523 
	C124.112175,112.180557 124.905128,118.737885 125.751198,125.734398 
	C124.495743,126.063812 122.802422,126.508110 119.731583,127.313858 
	C119.117973,120.861710 118.548470,114.873268 118.003754,108.441177 
z"/>
<path fill="#EDA890" opacity="1.000000" stroke="none" 
	d="
M117.850647,126.514015 
	C116.395493,127.196815 115.143318,127.530281 112.636650,128.197845 
	C111.845428,122.156082 110.980247,116.536308 110.415123,110.886536 
	C110.040070,107.136902 112.270874,106.027214 115.232811,106.457741 
	C116.192978,113.165718 117.123306,119.665199 117.850647,126.514015 
z"/>
<path fill="#EFA991" opacity="1.000000" stroke="none" 
	d="
M237.708862,97.607086 
	C237.783310,102.184563 237.783310,106.320305 237.783310,110.693855 
	C236.395142,111.047798 234.994324,111.404961 232.765045,111.973358 
	C232.206116,105.088593 231.669586,98.479630 231.136551,91.913689 
	C237.499298,88.966545 236.779755,93.980247 237.708862,97.607086 
z"/>
<path fill="#4F7574" opacity="1.000000" stroke="none" 
	d="
M247.024628,102.015701 
	C246.764191,99.093269 246.675995,96.602859 246.203156,94.187759 
	C245.531631,90.757874 246.695023,89.121361 251.543488,89.326324 
	C251.946793,94.990974 252.625565,100.798859 252.565598,106.599106 
	C252.552475,107.869209 249.906982,109.112083 248.473770,110.367500 
	C247.990906,110.126961 247.508026,109.886421 247.025146,109.645874 
	C247.025146,107.257698 247.025146,104.869514 247.024628,102.015701 
z"/>
<path fill="#4F7573" opacity="1.000000" stroke="none" 
	d="
M234.008087,83.995842 
	C237.260574,82.038994 240.513062,80.082146 244.248169,77.834938 
	C245.861557,80.531914 247.509644,83.286911 249.749649,87.031364 
	C243.182190,87.864326 237.567413,88.576462 231.130585,89.392853 
	C232.452255,87.336044 233.295868,86.023178 234.069397,84.354660 
	C233.999329,83.999001 234.008087,83.995842 234.008087,83.995842 
z"/>
<path fill="#5A754D" opacity="1.000000" stroke="none" 
	d="
M167.686142,80.421021 
	C167.990021,79.294350 167.990021,78.349472 167.990021,77.284088 
	C169.495514,77.284088 171.379013,77.284088 173.379929,77.284088 
	C174.074600,82.466957 174.741608,87.443550 175.408752,92.422165 
	C168.385925,93.617981 166.237839,90.454338 167.686142,80.421021 
z"/>
<path fill="#F1AB93" opacity="1.000000" stroke="none" 
	d="
M240.017883,103.976959 
	C239.588730,99.412338 239.159698,95.314804 238.673752,90.673630 
	C240.308212,90.437630 241.804825,90.221542 244.096054,89.890717 
	C244.560486,96.779175 244.989197,103.138039 245.424759,109.598335 
	C243.394684,110.107033 241.984589,110.460373 240.018036,110.953156 
	C240.018036,108.591919 240.018036,106.517982 240.017883,103.976959 
z"/>
<path fill="#EFA991" opacity="1.000000" stroke="none" 
	d="
M208.302429,85.481895 
	C208.224380,83.611778 208.224380,82.153183 208.224380,80.455750 
	C211.801178,79.731239 214.045959,80.368866 214.669815,84.571617 
	C215.164932,87.907066 216.455795,91.124397 217.390274,94.383453 
	C211.018524,95.783096 210.586319,95.391624 208.302429,85.481895 
z"/>
<path fill="#59724A" opacity="1.000000" stroke="none" 
	d="
M206.820663,87.060287 
	C207.476257,89.679688 208.052872,91.895477 208.698761,94.377533 
	C204.139755,95.424133 201.701370,93.735336 201.069550,89.334808 
	C200.812637,87.545532 200.287277,85.668945 200.599136,83.962776 
	C200.859161,82.540184 202.163422,81.308456 203.005188,79.992188 
	C204.014252,81.090569 205.215561,82.073288 205.968948,83.325500 
	C206.527893,84.254570 206.505249,85.533562 206.820663,87.060287 
z"/>
<path fill="#59724B" opacity="1.000000" stroke="none" 
	d="
M134.411942,77.640533 
	C135.221313,81.647675 135.722198,85.364510 136.211685,88.996735 
	C129.726669,90.918106 128.122131,88.040779 129.492310,77.350227 
	C130.978531,77.350227 132.541000,77.350227 134.411942,77.640533 
z"/>
<path fill="#E9A48D" opacity="1.000000" stroke="none" 
	d="
M88.997429,76.740341 
	C90.964996,76.368134 92.737061,76.368134 94.843781,76.368134 
	C95.235397,79.957672 95.619553,83.478767 96.002518,86.989014 
	C89.441978,88.496170 87.660835,86.006332 88.997429,76.740341 
z"/>
<path fill="#59734B" opacity="1.000000" stroke="none" 
	d="
M103.017143,79.150833 
	C103.294342,82.158020 103.566597,84.733528 103.981110,88.654800 
	C101.479729,87.669083 98.524055,87.274155 98.302040,86.273018 
	C97.626694,83.227654 97.292915,79.699554 98.280029,76.865852 
	C98.766647,75.468910 102.614357,74.773483 103.017143,79.150833 
z"/>
<path fill="#B3743A" opacity="1.000000" stroke="none" 
	d="
M223.730103,74.133514 
	C224.013580,76.630112 224.013580,79.229294 224.013580,81.828476 
	C223.245132,81.862198 222.476669,81.895920 221.708221,81.929642 
	C221.463943,80.489380 221.219681,79.049118 220.961823,77.168274 
	C221.781036,75.897156 222.613831,75.066628 223.730103,74.133514 
z"/>
<path fill="#B6773B" opacity="1.000000" stroke="none" 
	d="
M227.261475,88.900322 
	C224.562668,86.746124 223.902313,84.523430 227.792358,81.744705 
	C228.273315,83.599815 228.632935,84.986877 228.990204,86.769318 
	C228.495667,87.704056 228.003448,88.243416 227.261475,88.900322 
z"/>
<path fill="#B6773B" opacity="1.000000" stroke="none" 
	d="
M218.295898,89.238937 
	C221.708633,86.061920 223.119690,87.354286 223.061401,91.918243 
	C223.011444,92.581024 222.860977,92.784943 222.103302,92.983185 
	C221.097641,93.027695 220.626160,93.024033 220.154694,93.020363 
	C219.594742,91.857605 219.034790,90.694847 218.295898,89.238937 
z"/>
<path fill="#B6773B" opacity="1.000000" stroke="none" 
	d="
M232.440155,84.192703 
	C232.431305,82.406212 231.200058,79.555496 235.153015,80.208038 
	C234.956100,81.477234 234.551620,82.419289 234.077606,83.678596 
	C234.008087,83.995842 233.999329,83.999001 233.997604,84.003067 
	C233.578644,84.038979 233.161392,84.070816 232.440155,84.192703 
z"/>
<path fill="#B3743A" opacity="1.000000" stroke="none" 
	d="
M234.738739,65.220566 
	C234.448929,69.199043 234.142059,69.548355 232.008286,68.182434 
	C232.796738,67.006241 233.624863,66.161026 234.738739,65.220566 
z"/>
<path fill="#B3743A" opacity="1.000000" stroke="none" 
	d="
M228.744614,70.121567 
	C228.629898,71.115829 228.246017,72.200249 227.862122,73.284660 
	C227.583801,73.006256 227.305481,72.727859 226.996765,72.142258 
	C227.469391,71.293953 227.972427,70.752838 228.744614,70.121567 
z"/>
<path fill="#B6773B" opacity="1.000000" stroke="none" 
	d="
M238.446411,78.374435 
	C238.310654,77.627617 238.355225,76.772186 238.399796,75.916748 
	C238.620987,76.257088 238.842163,76.597435 239.105164,77.283028 
	C239.007431,77.868393 238.834015,78.080910 238.446411,78.374435 
z"/>
<path fill="#E39F88" opacity="1.000000" stroke="none" 
	d="
M127.178001,75.530746 
	C126.927246,75.244514 126.936241,74.947945 126.962692,74.429214 
	C127.118629,74.644417 127.271156,75.082199 127.178001,75.530746 
z"/>
<path fill="#C0803F" opacity="1.000000" stroke="none" 
	d="
M220.236862,93.297043 
	C220.626160,93.024033 221.097641,93.027695 221.924805,93.060074 
	C221.626678,93.250435 220.972855,93.412079 220.236862,93.297043 
z"/>
<path fill="#4F7775" opacity="1.000000" stroke="none" 
	d="
M104.993607,104.992607 
	C104.899055,105.029015 104.809914,105.071754 104.865616,105.061234 
	C105.010445,105.007965 104.999016,104.998940 104.993607,104.992607 
z"/>
<path fill="#5A774E" opacity="1.000000" stroke="none" 
	d="
M168.000000,133.994766 
	C196.113846,133.994766 223.727707,133.994766 251.341553,133.994766 
	C251.356674,134.625412 251.371796,135.256073 251.386917,135.886719 
	C225.546494,135.886719 199.706070,135.886719 173.865646,135.886719 
	C173.874390,136.484039 173.883118,137.081360 173.891846,137.678680 
	C199.828812,137.678680 225.765762,137.678680 251.702728,137.678680 
	C251.747986,138.288208 251.793259,138.897720 251.838516,139.507248 
	C248.165466,139.731110 244.492416,139.954971 240.819382,140.178848 
	C240.829330,140.437515 240.839279,140.696182 240.849228,140.954849 
	C244.279495,140.954849 247.709747,140.954849 252.140991,140.954849 
	C251.728882,146.134079 251.359039,150.781937 250.980637,155.537613 
	C194.718903,157.995316 139.080994,156.919495 83.444687,154.202271 
	C79.961838,147.617340 80.698761,141.126099 82.631409,133.994766 
	C110.931747,133.994766 139.215866,133.994766 168.000000,133.994766 
M152.038025,153.007233 
	C144.735413,153.007233 137.432800,153.007233 130.130188,153.007233 
	C130.133057,153.347321 130.135925,153.687424 130.138794,154.027512 
	C137.765778,154.027512 145.392746,154.027512 153.843018,154.151779 
	C159.321213,154.497482 164.799423,154.843170 170.277618,155.188858 
	C170.293900,154.477722 170.310181,153.766586 170.326462,153.055450 
	C164.540482,153.055450 158.754517,153.055450 152.038025,153.007233 
M100.577087,136.914627 
	C98.916145,136.914307 97.254349,136.948822 95.594398,136.907959 
	C85.560677,136.660934 85.561028,136.655151 86.012276,147.116333 
	C86.026588,147.448120 86.037796,147.780670 86.032562,148.112579 
	C85.990601,150.773224 87.213181,151.958755 89.955750,152.041214 
	C96.405296,152.235107 102.845306,152.794525 109.294914,152.927399 
	C122.120750,153.191666 122.212440,153.104645 120.878784,140.419098 
	C120.745201,139.148468 118.738327,137.167908 117.489624,137.079010 
	C112.201309,136.702530 106.870972,136.916367 100.577087,136.914627 
z"/>
<path fill="#C2813F" opacity="1.000000" stroke="none" 
	d="
M267.746765,137.139587 
	C269.198853,138.289551 270.887268,139.356781 271.027161,140.598480 
	C271.396362,143.874802 270.859741,147.245300 271.120667,150.543762 
	C271.413422,154.245392 269.671906,155.733368 266.324005,155.800247 
	C262.051910,155.885590 257.776794,155.820938 253.117371,155.820938 
	C253.520737,150.825165 253.888138,146.275040 254.301041,141.161331 
	C258.277893,141.161331 262.173889,141.161331 266.069885,141.161331 
	C266.079407,140.817245 266.088959,140.473145 266.098480,140.129059 
	C262.116608,139.923080 258.134705,139.717087 254.152802,139.511108 
	C254.139008,138.828949 254.125214,138.146805 254.111420,137.464645 
	C258.500031,137.355225 262.888611,137.245804 267.746765,137.139587 
z"/>
<path fill="#C1803F" opacity="1.000000" stroke="none" 
	d="
M73.054367,150.923218 
	C70.574776,150.894745 68.555824,150.894745 66.536873,150.894745 
	C66.533928,150.372208 66.530991,149.849670 66.528046,149.327133 
	C69.019318,149.215012 71.510582,149.102890 74.001854,148.990768 
	C74.013535,148.745728 74.025223,148.500687 74.036911,148.255646 
	C71.284355,148.050079 68.531799,147.844528 65.371353,147.608521 
	C65.371353,143.173233 65.371353,138.963837 65.371353,134.440063 
	C70.157814,134.440063 74.731430,134.440063 79.643051,134.440063 
	C79.376022,139.794571 79.116188,145.004730 78.819618,150.951706 
	C77.044266,150.951706 75.279633,150.951706 73.054367,150.923218 
z"/>
<path fill="#B27439" opacity="1.000000" stroke="none" 
	d="
M260.143372,133.178741 
	C264.054169,133.178925 267.495026,133.178925 270.935913,133.178925 
	C270.915131,133.894699 270.894318,134.610489 270.873535,135.326263 
	C265.316345,135.326263 259.759125,135.326263 254.201935,135.326263 
	C254.140472,134.847275 254.078995,134.368301 254.017532,133.889313 
	C255.902832,133.652390 257.788147,133.415466 260.143372,133.178741 
z"/>
<path fill="#503024" opacity="1.000000" stroke="none" 
	d="
M174.580887,103.080978 
	C175.003326,103.513771 175.001999,103.918716 174.579758,104.669022 
	C163.104645,106.320404 152.050446,107.626427 140.996246,108.932442 
	C140.997284,108.527191 140.998306,108.121933 140.997375,107.413780 
	C152.049316,105.758293 163.103210,104.405708 174.580887,103.080978 
z"/>
<path fill="#5A774E" opacity="1.000000" stroke="none" 
	d="
M140.597885,108.970146 
	C152.050446,107.626427 163.104645,106.320404 174.581268,104.973236 
	C189.627319,103.231575 204.268707,101.664513 218.859756,99.719719 
	C221.833511,99.323357 223.434052,99.822388 223.883072,102.681290 
	C224.338074,105.578178 223.162354,107.531990 220.031616,107.939507 
	C201.824661,110.309456 183.610687,112.627563 165.415054,115.081535 
	C157.057388,116.208717 148.757645,117.794418 140.383453,118.749809 
	C138.232361,118.995209 135.478424,118.156059 133.819000,116.808434 
	C132.938232,116.093140 133.077591,112.500786 134.066895,111.490883 
	C135.481705,110.046631 138.096924,109.778320 140.597885,108.970146 
z"/>
<path fill="#E39F88" opacity="1.000000" stroke="none" 
	d="
M121.464645,75.432266 
	C121.539726,75.385414 121.565170,75.578133 121.565170,75.578133 
	C121.565170,75.578133 121.389557,75.479111 121.464645,75.432266 
z"/>
<path fill="#503025" opacity="1.000000" stroke="none" 
	d="
M101.066544,136.914536 
	C106.870972,136.916367 112.201309,136.702530 117.489624,137.079010 
	C118.738327,137.167908 120.745201,139.148468 120.878784,140.419098 
	C122.212440,153.104645 122.120750,153.191666 109.294914,152.927399 
	C102.845306,152.794525 96.405296,152.235107 89.955750,152.041214 
	C87.213181,151.958755 85.990601,150.773224 86.032562,148.112579 
	C86.037796,147.780670 86.026588,147.448120 86.012276,147.116333 
	C85.561028,136.655151 85.560677,136.660934 95.594398,136.907959 
	C97.254349,136.948822 98.916145,136.914307 101.066544,136.914536 
M108.473694,138.897110 
	C104.498192,138.897125 100.522690,138.897141 96.547188,138.897186 
	C87.321098,138.897308 87.314240,138.897980 88.201851,148.265442 
	C88.244377,148.714294 88.594444,149.134018 89.123871,150.242981 
	C98.835617,150.242981 108.803413,150.242981 118.691185,150.242981 
	C118.691185,146.545380 118.691185,142.978149 118.691185,138.896866 
	C115.345192,138.896866 112.403030,138.896866 108.473694,138.897110 
z"/>
<path fill="#53432C" opacity="1.000000" stroke="none" 
	d="
M152.968536,153.055450 
	C158.754517,153.055450 164.540482,153.055450 170.326462,153.055450 
	C170.310181,153.766586 170.293900,154.477722 170.277618,155.188858 
	C164.799423,154.843170 159.321213,154.497482 153.423752,153.846222 
	C153.004486,153.540680 152.968536,153.055450 152.968536,153.055450 
z"/>
<path fill="#502418" opacity="1.000000" stroke="none" 
	d="
M152.503281,153.031342 
	C152.968536,153.055450 153.004486,153.540680 153.012100,153.784088 
	C145.392746,154.027512 137.765778,154.027512 130.138794,154.027512 
	C130.135925,153.687424 130.133057,153.347321 130.130188,153.007233 
	C137.432800,153.007233 144.735413,153.007233 152.503281,153.031342 
z"/>
<path fill="#4F7877" opacity="1.000000" stroke="none" 
	d="
M108.967285,138.896988 
	C112.403030,138.896866 115.345192,138.896866 118.691185,138.896866 
	C118.691185,142.978149 118.691185,146.545380 118.691185,150.242981 
	C108.803413,150.242981 98.835617,150.242981 89.123871,150.242981 
	C88.594444,149.134018 88.244377,148.714294 88.201851,148.265442 
	C87.314240,138.897980 87.321098,138.897308 96.547188,138.897186 
	C100.522690,138.897141 104.498192,138.897125 108.967285,138.896988 
z"/>
</svg>